<svg width="120" height="120" viewBox="0 0 120 120" fill="none" xmlns="http://www.w3.org/2000/svg">
<g clip-path="url(#clip0_1141_5589)">
<path d="M106.193 25.6149C106.193 24.9933 105.946 24.3973 105.506 23.9578L82.2047 0.656262C81.7652 0.216693 81.1692 -0.0303238 80.5477 -0.0304565H16.2305C15.6089 -0.0304565 15.0127 0.216474 14.5732 0.656012C14.1336 1.09555 13.8867 1.69169 13.8867 2.31329V117.626C13.8867 118.247 14.1336 118.844 14.5732 119.283C15.0127 119.723 15.6089 119.97 16.2305 119.97H103.849C104.471 119.97 105.067 119.723 105.507 119.283C105.946 118.844 106.193 118.247 106.193 117.626V25.6149Z" fill="#F1F1F1"/>
<path d="M106.107 25.0313C106.005 24.6249 105.794 24.2539 105.498 23.9578L82.1961 0.656262C81.7567 0.216693 81.1606 -0.0303238 80.5391 -0.0304565V22.2164C80.5391 22.9623 80.8354 23.6777 81.3628 24.2052C81.8903 24.7326 82.6056 25.0289 83.3516 25.0289L106.107 25.0313Z" fill="#CCCCCC"/>
<path d="M106.105 25.0312H83.3516C82.6056 25.0312 81.8903 24.7349 81.3628 24.2074C80.8354 23.68 80.5391 22.9646 80.5391 22.2187V24.5976C80.5391 26.1515 81.5047 28.1132 83.4406 28.1132H106.175V25.6148C106.19 25.4175 106.166 25.2193 106.105 25.0312Z" fill="#E8E8E8"/>
<path d="M13.8734 50.4703L7.54297 56.8195H13.8734V50.4703Z" fill="#E31E24"/>
<path d="M106.113 50.4703L112.446 56.8195H106.113V50.4703Z" fill="#E31E24"/>
<path d="M110.645 96.6024H9.34375C8.72215 96.6024 8.12601 96.3554 7.68647 95.9159C7.24693 95.4764 7 94.8802 7 94.2586V58.3195C7 57.6979 7.24693 57.1018 7.68647 56.6623C8.12601 56.2227 8.72215 55.9758 9.34375 55.9758H110.645C111.267 55.9758 111.863 56.2227 112.303 56.6623C112.742 57.1018 112.989 57.6979 112.989 58.3195V94.2563C112.989 94.5643 112.929 94.8693 112.811 95.1539C112.694 95.4385 112.521 95.6972 112.303 95.9151C112.086 96.1329 111.827 96.3058 111.543 96.4237C111.258 96.5417 110.953 96.6024 110.645 96.6024Z" fill="#E31E24"/>
<path d="M13.8711 96.6023H106.18V99.6422H13.8711V96.6023Z" fill="#E0E0E0"/>
<path d="M38.5116 85.453C38.3154 85.2456 38.1633 85.0006 38.0646 84.7326C37.9659 84.4647 37.9226 84.1796 37.9374 83.8945V71.3484C37.9067 71.0791 37.9371 70.8064 38.0265 70.5505C38.116 70.2947 38.262 70.0623 38.4537 69.8708C38.6455 69.6793 38.878 69.5335 39.134 69.4444C39.3899 69.3553 39.6627 69.3251 39.9319 69.3562H45.9413C47.7694 69.3562 49.1921 69.821 50.2093 70.7507C51.2264 71.6804 51.7343 72.9741 51.7327 74.6319C51.7327 76.2726 51.221 77.5624 50.1975 78.5015C49.1741 79.4405 47.7553 79.9093 45.9413 79.9077H42.2522V83.8921C42.2672 84.1783 42.2229 84.4644 42.1221 84.7326C42.0213 85.0008 41.8661 85.2453 41.6663 85.4507C41.4527 85.6485 41.2016 85.8014 40.9278 85.9004C40.6541 85.9994 40.3632 86.0426 40.0725 86.0273C39.787 86.0423 39.5014 85.9992 39.2331 85.9005C38.9648 85.8018 38.7193 85.6496 38.5116 85.453ZM45.3483 76.6734C46.1452 76.6734 46.7358 76.507 47.1179 76.1788C47.4999 75.8507 47.6921 75.3445 47.6921 74.6554C47.6921 73.296 46.9108 72.6163 45.3483 72.6163H42.2522V76.6734H45.3483Z" fill="white"/>
<path d="M54.3319 85.371C54.1507 85.1724 54.0115 84.9392 53.9229 84.6855C53.8343 84.4317 53.798 84.1626 53.8163 83.8944V71.3483C53.7856 71.0792 53.8161 70.8067 53.9053 70.5511C53.9946 70.2954 54.1404 70.0632 54.3319 69.8717C54.5234 69.6803 54.7556 69.5345 55.0112 69.4452C55.2669 69.3559 55.5394 69.3255 55.8084 69.3561H60.5452C62.3733 69.3561 63.9483 69.6881 65.2702 70.3522C66.55 70.9732 67.6121 71.9667 68.317 73.2022C69.0202 74.4381 69.3717 75.9077 69.3717 77.6108C69.3717 79.3139 69.0241 80.7983 68.3288 82.0639C67.6374 83.3021 66.5807 84.2966 65.303 84.9116C63.9811 85.5678 62.3983 85.8967 60.5545 85.8983H55.8084C55.5395 85.9148 55.2699 85.8766 55.0161 85.786C54.7623 85.6954 54.5295 85.5542 54.3319 85.371ZM60.2405 82.4178C61.8514 82.4178 63.0592 82.0225 63.8639 81.2319C64.6686 80.4413 65.0709 79.2342 65.0709 77.6108C65.0709 75.9842 64.6686 74.7803 63.8639 73.9991C63.0592 73.2178 61.8514 72.8272 60.2405 72.8272H58.1311V82.4178H60.2405Z" fill="white"/>
<path d="M72.5253 85.4412C72.3269 85.2372 72.1724 84.9946 72.0712 84.7286C71.9701 84.4626 71.9244 84.1787 71.9371 83.8943V71.3483C71.9068 71.0791 71.9376 70.8065 72.0272 70.5509C72.1167 70.2953 72.2628 70.0631 72.4544 69.8717C72.6461 69.6803 72.8784 69.5345 73.1341 69.4452C73.3899 69.356 73.6625 69.3255 73.9316 69.3561H81.8113C82.5144 69.3561 83.03 69.4928 83.3582 69.7662C83.6863 70.0397 83.8503 70.4733 83.8503 71.067C83.8503 71.6451 83.6824 72.0678 83.3464 72.335C83.0113 72.5998 82.498 72.7334 81.8113 72.7334H76.1746V75.7803H81.3308C82.0183 75.7803 82.53 75.9209 82.866 76.2022C83.2019 76.4834 83.3699 76.9139 83.3699 77.4936C83.3699 78.0733 83.2019 78.4951 82.866 78.7592C82.53 79.0233 82.0183 79.1561 81.3308 79.1576H76.1746V83.9061C76.1893 84.1912 76.146 84.4763 76.0473 84.7443C75.9486 85.0122 75.7966 85.2572 75.6003 85.4647C75.1733 85.8384 74.6246 86.0434 74.0571 86.0413C73.4896 86.0391 72.9425 85.8299 72.5183 85.4529L72.5253 85.4412Z" fill="white"/>
</g>
<defs>
<clipPath id="clip0_1141_5589">
<rect width="120" height="120" fill="white"/>
</clipPath>
</defs>
</svg>
