<svg width="120" height="120" viewBox="0 0 120 120" fill="none" xmlns="http://www.w3.org/2000/svg">
<g clip-path="url(#clip0_1141_5577)">
<path d="M106.185 25.6149C106.185 24.9933 105.938 24.3973 105.498 23.9578L82.1969 0.656262C81.7574 0.216693 81.1614 -0.0303238 80.5398 -0.0304565H16.2227C15.6011 -0.0304565 15.0049 0.216474 14.5654 0.656012C14.1258 1.09555 13.8789 1.69169 13.8789 2.31329V117.626C13.8789 118.247 14.1258 118.844 14.5654 119.283C15.0049 119.723 15.6011 119.97 16.2227 119.97H103.841C104.463 119.97 105.059 119.723 105.499 119.283C105.938 118.844 106.185 118.247 106.185 117.626V25.6149Z" fill="#F1F1F1"/>
<path d="M106.107 25.0313C106.005 24.6249 105.794 24.2539 105.498 23.9578L82.1961 0.656262C81.7567 0.216693 81.1606 -0.0303238 80.5391 -0.0304565V22.2164C80.5391 22.9623 80.8354 23.6777 81.3628 24.2052C81.8903 24.7326 82.6056 25.0289 83.3516 25.0289L106.107 25.0313Z" fill="#CCCCCC"/>
<path d="M106.109 25.0312H83.3555C82.6095 25.0312 81.8942 24.7349 81.3667 24.2075C80.8393 23.68 80.543 22.9647 80.543 22.2188V24.5977C80.543 26.1516 81.5086 28.1133 83.4445 28.1133H106.179V25.6148C106.194 25.4176 106.17 25.2193 106.109 25.0312Z" fill="#E8E8E8"/>
<path d="M13.8773 50.4703L7.54688 56.8195H13.8773V50.4703Z" fill="#682415"/>
<path d="M106.109 50.4703L112.442 56.8195H106.109V50.4703Z" fill="#682415"/>
<path d="M110.649 96.6023H9.34766C8.72606 96.6023 8.12991 96.3554 7.69037 95.9159C7.25084 95.4763 7.00391 94.8802 7.00391 94.2586V58.3195C7.00391 57.6979 7.25084 57.1018 7.69037 56.6622C8.12991 56.2227 8.72606 55.9758 9.34766 55.9758H110.649C111.271 55.9758 111.867 56.2227 112.307 56.6622C112.746 57.1018 112.993 57.6979 112.993 58.3195V94.2562C112.993 94.5642 112.933 94.8692 112.815 95.1539C112.698 95.4385 112.525 95.6971 112.307 95.915C112.09 96.1329 111.831 96.3058 111.547 96.4237C111.262 96.5416 110.957 96.6023 110.649 96.6023Z" fill="#D14524"/>
<path d="M13.8789 96.6024H106.188V99.6422H13.8789V96.6024Z" fill="#E0E0E0"/>
<path d="M39.1639 85.4531C38.9677 85.2457 38.8157 85.0006 38.717 84.7327C38.6183 84.4648 38.575 84.1797 38.5897 83.8945V71.3485C38.559 71.0792 38.5895 70.8064 38.6789 70.5506C38.7683 70.2948 38.9143 70.0624 39.1061 69.8709C39.2978 69.6794 39.5304 69.5336 39.7863 69.4445C40.0423 69.3554 40.315 69.3252 40.5843 69.3563H46.5866C48.4147 69.3563 49.8374 69.8211 50.8546 70.7508C51.8718 71.6805 52.3796 72.9742 52.378 74.632C52.378 76.2727 51.8663 77.5625 50.8429 78.5016C49.8194 79.4406 48.4007 79.9094 46.5866 79.9078H42.9046V83.8922C42.9196 84.1783 42.8753 84.4645 42.7745 84.7327C42.6736 85.0009 42.5184 85.2454 42.3186 85.4508C42.105 85.6486 41.8539 85.8015 41.5802 85.9005C41.3064 85.9995 41.0156 86.0427 40.7249 86.0274C40.4394 86.0424 40.1538 85.9993 39.8854 85.9006C39.6171 85.8019 39.3716 85.6496 39.1639 85.4531ZM46.0007 76.6735C46.7975 76.6735 47.3882 76.507 47.7702 76.1789C48.1522 75.8508 48.3468 75.3445 48.3468 74.6555C48.3468 73.2961 47.5655 72.6164 46.003 72.6164H42.9046V76.6735H46.0007Z" fill="white"/>
<path d="M55.0389 85.4531C54.8427 85.2457 54.6906 85.0006 54.5919 84.7327C54.4932 84.4648 54.4499 84.1797 54.4647 83.8945V71.3485C54.434 71.0794 54.4645 70.8069 54.5538 70.5512C54.643 70.2956 54.7889 70.0634 54.9803 69.8719C55.1718 69.6804 55.404 69.5346 55.6597 69.4453C55.9153 69.3561 56.1878 69.3256 56.4569 69.3563H62.4616C64.2897 69.3563 65.7116 69.8211 66.7272 70.7508C67.7428 71.6805 68.2514 72.9742 68.253 74.632C68.253 76.2727 67.7405 77.5625 66.7155 78.5016C65.6905 79.4406 64.2725 79.9094 62.4616 79.9078H58.7795V83.8922C58.7943 84.1785 58.7496 84.4648 58.6483 84.733C58.5471 85.0012 58.3915 85.2456 58.1913 85.4508C57.9779 85.6489 57.7268 85.802 57.453 85.9011C57.1792 86.0001 56.8883 86.0431 56.5975 86.0274C56.3124 86.0421 56.0272 85.9988 55.7593 85.9001C55.4914 85.8014 55.2463 85.6494 55.0389 85.4531ZM61.8733 76.6735C62.6725 76.6735 63.2608 76.507 63.6452 76.1789C64.0295 75.8508 64.2194 75.3445 64.2194 74.6555C64.2194 73.2961 63.4381 72.6164 61.8756 72.6164H58.7795V76.6735H61.8733Z" fill="white"/>
<path d="M74.3383 85.4297C74.1368 85.2299 73.9794 84.99 73.8765 84.7256C73.7735 84.4611 73.7273 84.178 73.7406 83.8945V72.8508H70.4336C69.7469 72.8508 69.2336 72.7055 68.8984 72.4172C68.5633 72.1289 68.3945 71.6859 68.3945 71.0906C68.3945 70.4953 68.5609 70.0594 68.8984 69.7781C69.2359 69.4969 69.7469 69.3563 70.4336 69.3563H81.4094C82.0953 69.3563 82.607 69.4969 82.9445 69.7781C83.282 70.0594 83.45 70.4969 83.4484 71.0906C83.4484 71.6859 83.2797 72.1266 82.9445 72.4172C82.6094 72.7078 82.0961 72.8508 81.4094 72.8508H78.1023V83.9063C78.1157 84.1897 78.0694 84.4728 77.9665 84.7373C77.8635 85.0017 77.7062 85.2416 77.5047 85.4414C77.0613 85.814 76.5007 86.0183 75.9215 86.0183C75.3423 86.0183 74.7817 85.814 74.3383 85.4414V85.4297Z" fill="white"/>
</g>
<defs>
<clipPath id="clip0_1141_5577">
<rect width="120" height="120" fill="white"/>
</clipPath>
</defs>
</svg>
