<svg width="120" height="120" viewBox="0 0 120 120" fill="none" xmlns="http://www.w3.org/2000/svg">
<g clip-path="url(#clip0_1141_5540)">
<path d="M106.185 25.6149C106.185 24.9933 105.938 24.3973 105.498 23.9578L82.1969 0.656262C81.7574 0.216693 81.1614 -0.0303238 80.5398 -0.0304565H16.2227C15.6011 -0.0304565 15.0049 0.216474 14.5654 0.656012C14.1258 1.09555 13.8789 1.69169 13.8789 2.31329V117.626C13.8789 118.247 14.1258 118.844 14.5654 119.283C15.0049 119.723 15.6011 119.97 16.2227 119.97H103.841C104.463 119.97 105.059 119.723 105.499 119.283C105.938 118.844 106.185 118.247 106.185 117.626V25.6149Z" fill="#F1F1F1"/>
<path d="M106.107 25.0313C106.005 24.6249 105.794 24.2539 105.498 23.9578L82.1961 0.656262C81.7567 0.216693 81.1606 -0.0303238 80.5391 -0.0304565V22.2164C80.5391 22.9623 80.8354 23.6777 81.3628 24.2052C81.8903 24.7326 82.6056 25.0289 83.3516 25.0289L106.107 25.0313Z" fill="#CCCCCC"/>
<path d="M106.109 25.0312H83.3555C82.6095 25.0312 81.8942 24.7349 81.3667 24.2075C80.8393 23.68 80.543 22.9647 80.543 22.2188V24.5977C80.543 26.1516 81.5086 28.1133 83.4445 28.1133H106.179V25.6148C106.194 25.4176 106.17 25.2193 106.109 25.0312Z" fill="#E8E8E8"/>
<path d="M13.8773 50.4703L7.54688 56.8195H13.8773V50.4703Z" fill="#145330"/>
<path d="M106.109 50.4703L112.442 56.8195H106.109V50.4703Z" fill="#145330"/>
<path d="M110.649 96.6023H9.34766C8.72606 96.6023 8.12991 96.3554 7.69037 95.9159C7.25084 95.4763 7.00391 94.8802 7.00391 94.2586V58.3195C7.00391 57.6979 7.25084 57.1018 7.69037 56.6622C8.12991 56.2227 8.72606 55.9758 9.34766 55.9758H110.649C111.271 55.9758 111.867 56.2227 112.307 56.6622C112.746 57.1018 112.993 57.6979 112.993 58.3195V94.2562C112.993 94.5642 112.933 94.8692 112.815 95.1539C112.698 95.4385 112.525 95.6971 112.307 95.915C112.09 96.1329 111.831 96.3058 111.547 96.4237C111.262 96.5416 110.957 96.6023 110.649 96.6023Z" fill="#1F7244"/>
<path d="M13.8789 96.6024H106.188V99.6422H13.8789V96.6024Z" fill="#E0E0E0"/>
<path d="M53.3195 84.0586C53.3209 84.3238 53.2661 84.5862 53.1586 84.8286C53.0511 85.071 52.8935 85.2879 52.696 85.4649C52.514 85.6542 52.2956 85.805 52.054 85.908C51.8124 86.0111 51.5525 86.0645 51.2898 86.0649C51.014 86.0625 50.7423 85.998 50.4948 85.8763C50.2473 85.7546 50.0303 85.5787 49.8601 85.3617L45.8265 80.5313L41.7226 85.3617C41.5558 85.5768 41.3429 85.7516 41.0995 85.8733C40.8561 85.995 40.5884 86.0605 40.3163 86.0649C40.0527 86.0634 39.7922 86.0084 39.5505 85.9032C39.3087 85.7981 39.0909 85.645 38.9101 85.4531C38.7259 85.2863 38.5764 85.0848 38.4702 84.8602C38.3641 84.6355 38.3032 84.3921 38.2913 84.1439C38.2793 83.8958 38.3164 83.6476 38.4005 83.4138C38.4845 83.18 38.6139 82.965 38.7812 82.7813L43.2835 77.5758L38.8984 72.4875C38.5795 72.1407 38.3964 71.6905 38.3827 71.2195C38.3827 70.9565 38.4379 70.6965 38.5449 70.4562C38.6519 70.216 38.8083 70.0009 39.0038 69.825C39.1891 69.6362 39.4101 69.4861 39.6539 69.3835C39.8978 69.2809 40.1596 69.2278 40.4241 69.2274C40.6999 69.2301 40.9715 69.2947 41.2189 69.4164C41.4664 69.5381 41.6833 69.7138 41.8538 69.9305L45.8171 74.618L49.757 69.9305C49.9158 69.7126 50.1238 69.5354 50.3641 69.4132C50.6044 69.291 50.8702 69.2273 51.1398 69.2274C51.404 69.2276 51.6655 69.2806 51.909 69.3832C52.1525 69.4858 52.3731 69.636 52.5577 69.825C52.7533 70.0009 52.9096 70.216 53.0166 70.4562C53.1236 70.6965 53.1789 70.9565 53.1788 71.2195C53.1746 71.688 52.9996 72.1389 52.6866 72.4875L48.3038 77.5758L52.7804 82.7813C53.1137 83.1245 53.3061 83.5803 53.3195 84.0586Z" fill="white"/>
<path d="M55.8734 85.3711C55.5288 85.0289 55.3577 84.5274 55.3577 83.8711V71.3485C55.3446 71.067 55.3887 70.7859 55.4874 70.522C55.5861 70.2581 55.7373 70.017 55.932 69.8133C56.1394 69.6171 56.3845 69.465 56.6524 69.3663C56.9203 69.2676 57.2054 69.2243 57.4906 69.2391C57.7814 69.2237 58.0725 69.2665 58.3465 69.3651C58.6206 69.4637 58.8723 69.6161 59.0867 69.8133C59.2844 70.0153 59.4385 70.2558 59.5393 70.5199C59.6401 70.784 59.6855 71.0661 59.6726 71.3485V82.3946H65.0632C66.4226 82.3946 67.1031 82.9805 67.1046 84.1524C67.1046 84.7477 66.9359 85.1836 66.5984 85.4649C66.2609 85.7461 65.7523 85.8891 65.0632 85.8891H57.3499C57.0816 85.9065 56.8126 85.8696 56.5589 85.7806C56.3052 85.6916 56.072 85.5523 55.8734 85.3711Z" fill="white"/>
<path d="M71.3147 85.6875C70.3723 85.4729 69.4771 85.0876 68.6733 84.5508C68.4381 84.3842 68.2421 84.1682 68.0991 83.918C67.972 83.6555 67.9116 83.3657 67.9233 83.0742C67.9154 82.6309 68.0649 82.1991 68.3452 81.8555C68.458 81.699 68.6056 81.571 68.7765 81.4815C68.9473 81.392 69.1367 81.3435 69.3295 81.3399C69.5287 81.3388 69.7266 81.3705 69.9155 81.4336C70.1624 81.5237 70.3983 81.6417 70.6186 81.7852C71.2187 82.1272 71.8619 82.3874 72.5311 82.5586C73.2338 82.7231 73.9539 82.8018 74.6756 82.793C75.5991 82.793 76.2975 82.6571 76.785 82.3828C77.0061 82.2693 77.1906 82.0954 77.3171 81.8814C77.4436 81.6674 77.507 81.422 77.4999 81.1735C77.4999 80.8156 77.2772 80.5071 76.8319 80.2477C76.3866 79.9883 75.5381 79.7344 74.2866 79.486C73.0295 79.2533 71.8077 78.8594 70.6514 78.3141C69.7764 77.8594 69.1631 77.3242 68.8116 76.7086C68.4107 75.9279 68.2326 75.052 68.2966 74.1768C68.3607 73.3015 68.6646 72.4608 69.1749 71.7469C69.8074 70.9078 70.6508 70.2512 71.6194 69.8438C72.7284 69.3636 73.9266 69.1239 75.135 69.1406C76.163 69.1262 77.1881 69.2523 78.1819 69.5156C79.0572 69.7592 79.8825 70.156 80.6194 70.6875C80.8669 70.8527 81.0723 71.0734 81.2194 71.3321C81.344 71.5921 81.4042 71.8782 81.3952 72.1664C81.4034 72.6079 81.2585 73.0385 80.985 73.3852C80.8746 73.5419 80.7287 73.6702 80.5593 73.7598C80.3899 73.8495 80.2017 73.8977 80.01 73.9008C79.8194 73.9022 79.6298 73.8745 79.4475 73.8188C79.193 73.7241 78.9494 73.6023 78.7209 73.4555C78.6436 73.4086 78.4186 73.2867 78.053 73.0922C77.6452 72.8813 77.2119 72.7238 76.7639 72.6235C76.2367 72.5024 75.6971 72.4434 75.1561 72.4477C74.4852 72.4161 73.8191 72.5745 73.2342 72.9047C73.0156 73.0217 72.8326 73.1957 72.7047 73.4082C72.5768 73.6206 72.5087 73.8637 72.5077 74.1117C72.4957 74.3783 72.5882 74.6389 72.7655 74.8383C73.0421 75.0893 73.37 75.2773 73.7264 75.3891C74.4065 75.6262 75.1039 75.8103 75.8124 75.9399C77.0407 76.1746 78.2318 76.5735 79.3538 77.1258C80.0992 77.4836 80.7323 78.0389 81.1842 78.7313C81.5554 79.3881 81.7417 80.1333 81.7233 80.8875C81.7394 81.8689 81.434 82.8287 80.8538 83.6203C80.2316 84.4441 79.3913 85.0774 78.428 85.4485C77.2745 85.9006 76.0432 86.1204 74.8045 86.0953C73.6288 86.1064 72.4563 85.9694 71.3147 85.6875Z" fill="white"/>
</g>
<defs>
<clipPath id="clip0_1141_5540">
<rect width="120" height="120" fill="white"/>
</clipPath>
</defs>
</svg>
