<svg width="120" height="120" viewBox="0 0 120 120" fill="none" xmlns="http://www.w3.org/2000/svg">
<g clip-path="url(#clip0_1141_5565)">
<path d="M106.185 25.6149C106.185 24.9933 105.938 24.3973 105.498 23.9578L82.1969 0.656262C81.7574 0.216693 81.1614 -0.0303238 80.5398 -0.0304565H16.2227C15.6011 -0.0304565 15.0049 0.216474 14.5654 0.656012C14.1258 1.09555 13.8789 1.69169 13.8789 2.31329V117.626C13.8789 118.247 14.1258 118.844 14.5654 119.283C15.0049 119.723 15.6011 119.97 16.2227 119.97H103.841C104.463 119.97 105.059 119.723 105.499 119.283C105.938 118.844 106.185 118.247 106.185 117.626V25.6149Z" fill="#F1F1F1"/>
<path d="M106.107 25.0313C106.005 24.6249 105.794 24.2539 105.498 23.9578L82.1961 0.656262C81.7567 0.216693 81.1606 -0.0303238 80.5391 -0.0304565V22.2164C80.5391 22.9623 80.8354 23.6777 81.3628 24.2052C81.8903 24.7326 82.6056 25.0289 83.3516 25.0289L106.107 25.0313Z" fill="#CCCCCC"/>
<path d="M106.109 25.0312H83.3555C82.6095 25.0312 81.8942 24.7349 81.3667 24.2075C80.8393 23.68 80.543 22.9647 80.543 22.2188V24.5977C80.543 26.1516 81.5086 28.1133 83.4445 28.1133H106.179V25.6148C106.194 25.4176 106.17 25.2193 106.109 25.0312Z" fill="#E8E8E8"/>
<path d="M13.8773 50.4703L7.54688 56.8195H13.8773V50.4703Z" fill="#29528F"/>
<path d="M106.109 50.4703L112.442 56.8195H106.109V50.4703Z" fill="#29528F"/>
<path d="M110.649 96.6023H9.34766C8.72606 96.6023 8.12991 96.3554 7.69037 95.9159C7.25084 95.4763 7.00391 94.8802 7.00391 94.2586V58.3195C7.00391 57.6979 7.25084 57.1018 7.69037 56.6622C8.12991 56.2227 8.72606 55.9758 9.34766 55.9758H110.649C111.271 55.9758 111.867 56.2227 112.307 56.6622C112.746 57.1018 112.993 57.6979 112.993 58.3195V94.2562C112.993 94.5642 112.933 94.8692 112.815 95.1539C112.698 95.4385 112.525 95.6971 112.307 95.915C112.09 96.1329 111.831 96.3058 111.547 96.4237C111.262 96.5416 110.957 96.6023 110.649 96.6023Z" fill="#255499"/>
<path d="M13.8789 96.6024H106.188V99.6422H13.8789V96.6024Z" fill="#E0E0E0"/>
<path d="M35.8827 85.3711C35.7014 85.1725 35.5623 84.9394 35.4737 84.6856C35.3851 84.4318 35.3488 84.1627 35.367 83.8945V71.3484C35.3364 71.0794 35.3668 70.8069 35.4561 70.5512C35.5454 70.2956 35.6912 70.0633 35.8827 69.8719C36.0742 69.6804 36.3064 69.5346 36.562 69.4453C36.8177 69.356 37.0902 69.3256 37.3592 69.3562H42.0959C43.9241 69.3562 45.4991 69.6883 46.8209 70.3523C48.1008 70.9733 49.1629 71.9668 49.8678 73.2023C50.5709 74.4383 50.9225 75.9078 50.9225 77.6109C50.9225 79.314 50.5749 80.7984 49.8795 82.064C49.1882 83.3022 48.1315 84.2967 46.8538 84.9117C45.5319 85.568 43.9491 85.8969 42.1053 85.8984H37.3592C37.0902 85.915 36.8207 85.8768 36.5669 85.7861C36.3131 85.6955 36.0803 85.5543 35.8827 85.3711ZM41.7913 82.4179C43.4022 82.4179 44.61 82.0226 45.4147 81.232C46.2194 80.4414 46.6217 79.2344 46.6217 77.6109C46.6217 75.9844 46.2194 74.7805 45.4147 73.9992C44.61 73.218 43.4022 72.8273 41.7913 72.8273H39.6819V82.4179H41.7913Z" fill="white"/>
<path d="M56.9516 85.0547C55.724 84.3754 54.7249 83.3479 54.0805 82.1016C53.4154 80.698 53.0703 79.1642 53.0703 77.6109C53.0703 76.0577 53.4154 74.5239 54.0805 73.1203C54.7228 71.8749 55.7226 70.8498 56.9516 70.1766C58.3181 69.4982 59.8229 69.1452 61.3485 69.1452C62.8741 69.1452 64.3789 69.4982 65.7454 70.1766C66.9722 70.8509 67.9683 71.8781 68.6048 73.125C69.2978 74.5169 69.6421 76.0564 69.6079 77.6109C69.6456 79.1678 69.2995 80.7101 68.6001 82.1016C67.9541 83.3475 66.9545 84.3749 65.7266 85.0547C64.367 85.742 62.8649 86.1001 61.3415 86.1001C59.818 86.1001 58.3159 85.742 56.9563 85.0547H56.9516ZM64.2805 81.4688C64.9837 80.5844 65.3352 79.2984 65.3352 77.6109C65.3352 75.9234 64.9798 74.6414 64.2688 73.7648C63.5563 72.8883 62.5829 72.4508 61.3485 72.4523C60.1141 72.4539 59.1376 72.8875 58.4188 73.7531C57.7141 74.6203 57.3618 75.9063 57.3618 77.6109C57.3618 79.3156 57.7141 80.6055 58.4188 81.4805C59.1219 82.3555 60.0985 82.793 61.3485 82.793C62.5985 82.793 63.5751 82.3516 64.2782 81.4688H64.2805Z" fill="white"/>
<path d="M75.639 85.0781C74.4065 84.4014 73.4031 83.3735 72.7562 82.125C72.0836 80.7236 71.7344 79.1889 71.7344 77.6344C71.7344 76.0799 72.0836 74.5452 72.7562 73.1438C73.4037 71.8952 74.407 70.8667 75.639 70.1883C77.1421 69.428 78.8191 69.0775 80.5008 69.1721C82.1826 69.2668 83.8097 69.8032 85.218 70.7273C85.4543 70.8829 85.651 71.0916 85.7922 71.3367C85.919 71.6002 85.9793 71.8907 85.9679 72.1828C85.9809 72.6286 85.8356 73.0645 85.5578 73.4133C85.4426 73.5692 85.2925 73.6959 85.1195 73.7834C84.9466 73.8709 84.7555 73.9167 84.5617 73.9172C84.3461 73.9204 84.1318 73.8846 83.9289 73.8117C83.6995 73.7202 83.4797 73.6064 83.2726 73.4719C82.7889 73.1729 82.2691 72.9366 81.7258 72.7688C81.2375 72.6278 80.7317 72.5567 80.2234 72.5578C78.8328 72.5578 77.7976 72.9758 77.118 73.8117C76.4383 74.6477 76.0976 75.918 76.0961 77.6227C76.0961 79.3414 76.4367 80.6195 77.118 81.457C77.7992 82.2945 78.8344 82.7125 80.2234 82.7109C80.6871 82.7078 81.1471 82.6286 81.5851 82.4766C82.0211 82.3203 82.5836 82.0899 83.2726 81.7852C83.5086 81.6556 83.7511 81.5382 83.9992 81.4336C84.179 81.3668 84.3699 81.335 84.5617 81.3398C84.7556 81.3397 84.9469 81.3853 85.1199 81.4729C85.293 81.5604 85.443 81.6875 85.5578 81.8438C85.8365 82.1921 85.982 82.6283 85.9679 83.0742C85.9767 83.3616 85.9165 83.647 85.7922 83.9063C85.6542 84.1569 85.4571 84.3701 85.218 84.5274C83.8103 85.4531 82.1831 85.9904 80.501 86.0851C78.8189 86.1798 77.1417 85.8284 75.639 85.0664V85.0781Z" fill="white"/>
</g>
<defs>
<clipPath id="clip0_1141_5565">
<rect width="120" height="120" fill="white"/>
</clipPath>
</defs>
</svg>
